<?xml version="1.0" encoding="UTF-8" standalone="no"?>
<svg
   xmlns:dc="http://purl.org/dc/elements/1.1/"
   xmlns:cc="http://creativecommons.org/ns#"
   xmlns:rdf="http://www.w3.org/1999/02/22-rdf-syntax-ns#"
   xmlns:svg="http://www.w3.org/2000/svg"
   xmlns="http://www.w3.org/2000/svg"
   xmlns:sodipodi="http://sodipodi.sourceforge.net/DTD/sodipodi-0.dtd"
   xmlns:inkscape="http://www.inkscape.org/namespaces/inkscape"
   version="1.1"
   viewBox="0 0 2448.9539 692.26251"
   height="2452.9"
   width="8677.4"
   id="svg5"
   sodipodi:docname="Flugzeugträger_Silhouette.svg"
   inkscape:version="0.92.4 (5da689c313, 2019-01-14)">
  <defs
     id="defs9" />
  <sodipodi:namedview
     pagecolor="#ffffff"
     bordercolor="#666666"
     borderopacity="1"
     objecttolerance="10"
     gridtolerance="10"
     guidetolerance="10"
     inkscape:pageopacity="0"
     inkscape:pageshadow="2"
     inkscape:window-width="1366"
     inkscape:window-height="715"
     id="namedview7"
     showgrid="false"
     inkscape:zoom="0.0620941"
     inkscape:cx="4473.7911"
     inkscape:cy="2342.379"
     inkscape:window-x="-8"
     inkscape:window-y="-8"
     inkscape:window-maximized="1"
     inkscape:current-layer="svg5" />
  <metadata
     id="metadata4119">
    <rdf:RDF>
      <cc:Work
         rdf:about="">
        <dc:format>image/svg+xml</dc:format>
        <dc:type
           rdf:resource="http://purl.org/dc/dcmitype/StillImage" />
        <dc:title></dc:title>
      </cc:Work>
    </rdf:RDF>
  </metadata>
  <g
     transform="matrix(-1,0,0,1,1253.2032,353.02414)"
     id="layer1">
    <path
       id="path3214"
       fill="#808080"
       d="m 354.11667,-352.86797 v 24.68007 h -26.574 v 7.59089 h 26.574 v 118.15711 l -103.4699,-0.44979 1.8996,10.43728 34.1723,2.84586 64.552,14.24252 h 22.7814 l 3.7992,85.429729 h -24.6812 l 3.7993,47.46016 h -36.6223 l 3.806,-54.07157 c 1.5585,-3.15992 2.4366,-6.717769 2.4364,-10.477239 0,-13.09899 -10.628,-23.72677 -23.7278,-23.72677 -13.0998,0 -23.7346,10.62752 -23.7346,23.72677 0,3.80868 0.8997,7.407279 2.4969,10.597889 -0.6871,15.90357 -9.5147,49.21911 -10.7867,53.95092 h -0.2552 l 0.047,0.76491 c 0,0.0132 -0.047,0.18151 -0.047,0.18151 l 0.054,-0.0738 4.5107,70.31408 h -34.9374 v 11.39005 h 3.8998 l 4.6451,10.44363 -52.6713,2.77231 -9.9813,-34.09659 h -5.6986 c 0,0 2.6627,9.76788 -6.6049,37.02314 h -4.7858 v 6.64475 h 7.598 v 0.94615 h -10.4441 v 10.4439 h 10.4441 v 19.927892 l -258.201297,3.79888 v 1.89945 H -1182.7346 c -14.1937,1.446469 -15.5132,9.327089 -9.4913,20.880919 l 22.7814,18.98782 v 13.28976 l -11.3907,17.08176 v 30.3784 h 15.19 l 11.3907,49.35961 c 0,0 25.3366,-1.36287 36.0719,0 18.0895,2.29659 40.8724,12.15152 58.8534,15.18259 12.6384,2.13016 27.6273,2.06269 42.7169,2.20133 v 4.44341 h 31.23219 l -4.6382,7.07417 c -1.2548,1.91267 -1.6447,4.13835 -1.2686,6.21533 h -18.68029 v 30.3784 h 33.22589 v -18.03506 c 3.5667,1.14617 7.5798,-0.15875 9.7394,-3.4499 l 11.0753,-16.87381 c 12.5676,6.24708 25.66224,15.88982 35.18595,24.11598 1.23251,1.06468 2.58506,2.35717 4.00719,3.79889 h -19.1905 v -14.23617 h -8.54464 v 41.76183 h 8.54464 v -18.98147 h 26.99693 c 10.09078,11.67686 20.46552,25.62622 20.46573,25.62622 l 1985.84971,-5.69172 55.0611,-11.39005 3.7925,-102.5181 c 32.2472,-38.10689 59.5723,-70.44717 96.8246,-83.53029 l -1.8997,-41.768179 h -121.4988 l -5.6989,1.89918 -527.78693,-3.792012 15.1831,-55.05821 -7.5917,-7.59116 h -100.6239 l 3.7992,-22.7803603 9.4913,-13.2894902 -1.8929,-9.4908705 11.3907,-28.478429 7.5916,-1.89971 -3.7993,-15.1892 h -9.491 v -9.4906 h -25.6277 v -38.915719 h -18.989 v -9.4906 h 40.8176 v -5.69833 h -37.0183 v -27.52567 h -17.0896 v 29.42511 h 5.6986 v 3.79889 h 1.8997 v 9.4906 h -4.7457 v 19.934509 l -41.7704,-3.79889 3.7991,-85.429729 34.1723,-1.89944 5.692,-20.88092 -2.6581,-0.0132 c 2.8821,-4.3516 4.5577,-9.56945 4.5577,-15.17597 0,-15.19476 -12.3312,-27.5254 -27.5272,-27.5254 -15.1958,0 -27.527,12.33064 -27.527,27.5254 0,5.52106 1.6281,10.6635 4.4301,14.97436 l -57.5914,-0.24818 v -118.19071 h 10.4443 v -7.59089 h -10.4443 v -24.68007 h -6.6451 z m -41.247,267.363319 6.249,43.03051 h -47.8249 l 30.8026,-40.82891 c 0.2528,0.008 0.5105,0.0132 0.7653,0.0132 3.5765,0 6.9655,-0.79587 10.008,-2.21483 z m -127.7215,120.86194 9.7664,18.02156 -18.3045,0.96679 v 1.89944 h -2.3223 z"
       inkscape:connector-curvature="0"
       style="fill-rule:evenodd;stroke:#000000;stroke-width:0.26499999" />
  </g>
</svg>
