<?xml version="1.0" standalone="no"?>
<!DOCTYPE svg PUBLIC "-//W3C//DTD SVG 20010904//EN"
 "http://www.w3.org/TR/2001/REC-SVG-20010904/DTD/svg10.dtd">
<svg version="1.0" xmlns="http://www.w3.org/2000/svg"
 width="382.000000pt" height="85.000000pt" viewBox="0 0 382.000000 85.000000"
 preserveAspectRatio="xMidYMid meet">

<g transform="translate(0.000000,85.000000) scale(0.100000,-0.100000)"
fill="#808080" stroke="none">
<path d="M2072 714 c-2 -25 -7 -33 -27 -38 -28 -7 -35 -36 -9 -36 14 0 16 -8
10 -52 -3 -29 -6 -83 -6 -120 0 -39 -4 -68 -10 -68 -5 0 -10 9 -10 20 0 12 -7
20 -16 20 -11 0 -15 -6 -11 -20 3 -13 -1 -24 -13 -30 -24 -13 -30 -4 -30 42 0
21 -4 38 -10 38 -5 0 -10 -18 -10 -40 0 -23 -5 -40 -11 -40 -8 0 -9 11 -5 31
4 24 2 35 -11 45 -15 10 -16 15 -5 25 6 7 12 19 12 27 0 18 -29 41 -50 41 -10
1 -7 -6 9 -18 27 -21 20 -45 -10 -36 -23 7 -26 -13 -4 -21 14 -6 13 -8 -2 -20
-24 -18 -33 -17 -33 1 0 8 -4 15 -10 15 -19 0 -10 -39 10 -45 35 -11 22 -32
-22 -39 -24 -4 -53 -9 -65 -13 -20 -4 -23 -1 -23 27 0 47 -16 70 -50 70 -47 0
-60 -10 -66 -51 l-7 -39 -52 0 c-31 0 -57 -5 -63 -13 -6 -7 -12 -46 -14 -87
l-3 -75 -56 -3 c-51 -3 -56 -1 -67 23 -15 33 -15 35 3 35 27 0 16 17 -16 24
-35 7 -79 -2 -79 -15 0 -5 11 -9 25 -9 31 0 32 -10 2 -39 -21 -19 -31 -21 -82
-15 -52 6 -56 9 -40 21 17 12 15 13 -19 13 -33 0 -37 -2 -26 -15 11 -13 6 -15
-38 -15 -28 0 -54 5 -57 10 -3 6 -19 10 -36 10 -16 0 -29 -4 -29 -10 0 -5 -19
-10 -42 -10 -38 0 -40 1 -23 14 17 12 18 18 7 55 -11 34 -17 41 -39 41 -15 0
-35 -8 -45 -17 -11 -10 -40 -20 -66 -24 -43 -6 -44 -6 -11 -8 31 -1 37 -5 41
-26 5 -25 4 -25 -58 -25 -36 0 -64 4 -64 10 0 6 -18 10 -40 10 -22 0 -40 -4
-40 -10 0 -5 -7 -10 -15 -10 -8 0 -15 5 -15 10 0 6 -79 10 -216 10 l-217 0 39
-42 c22 -24 55 -64 73 -90 l34 -48 1708 0 1708 0 26 37 c14 21 25 43 25 49 0
6 7 17 15 24 8 7 12 16 9 21 -3 5 -97 9 -209 9 l-204 0 -3 48 -3 47 -67 3
c-60 3 -68 5 -68 22 0 18 -7 20 -60 20 -53 0 -60 -2 -60 -20 0 -17 -7 -20 -39
-20 -41 0 -52 13 -66 86 -6 30 -37 54 -69 54 -30 0 -54 -39 -62 -102 -4 -35
-9 -55 -12 -46 -2 14 -13 18 -43 18 l-39 0 0 -60 c0 -53 -2 -60 -19 -60 -23 0
-27 18 -36 151 -5 65 -3 99 4 103 6 4 11 12 11 17 0 6 -4 8 -9 5 -4 -3 -11 34
-15 82 -4 48 -10 97 -13 110 -4 18 -1 22 21 22 14 0 26 5 26 10 0 6 -25 10
-55 10 -59 0 -69 -9 -31 -30 25 -13 27 -31 7 -69 -6 -11 -11 -77 -11 -150 l0
-131 -64 0 -64 0 -22 61 c-27 72 -40 79 -145 79 -101 0 -105 -2 -106 -64 0
-82 -12 -130 -32 -134 -14 -3 -17 5 -17 52 0 42 -4 56 -15 56 -8 0 -26 5 -40
12 -25 11 -25 12 -25 131 0 98 3 124 17 139 14 16 15 18 0 18 -10 0 -17 11
-20 33 l-4 32 -1 -31z"/>
<path d="M2709 493 c-13 -16 -12 -17 4 -4 16 13 21 21 13 21 -2 0 -10 -8 -17
-17z"/>
</g>
</svg>
