<?xml version="1.0" standalone="no"?>
<!DOCTYPE svg PUBLIC "-//W3C//DTD SVG 20010904//EN"
 "http://www.w3.org/TR/2001/REC-SVG-20010904/DTD/svg10.dtd">
<svg version="1.0" xmlns="http://www.w3.org/2000/svg"
 width="640.000000pt" height="640.000000pt" viewBox="0 0 640.000000 640.000000"
 preserveAspectRatio="xMidYMid meet">

<g transform="translate(0.000000,640.000000) scale(0.100000,-0.100000)"
fill="#808080" stroke="none">
<path d="M1668 4077 l-48 -9 0 -44 c0 -41 -2 -43 -37 -53 -21 -6 -46 -11 -55
-11 -10 0 -18 -7 -18 -16 0 -16 8 -15 88 3 19 4 22 1 22 -26 0 -25 -5 -32 -27
-37 -88 -19 -103 -26 -123 -54 -25 -36 -23 -41 30 -65 22 -10 40 -21 40 -24 0
-3 -13 -48 -29 -100 l-28 -94 25 -63 24 -62 -31 -343 c-42 -462 -31 -414 -101
-445 l-58 -26 -12 -86 c-7 -48 -23 -154 -35 -237 -13 -82 -21 -152 -19 -154 4
-5 2781 157 2856 167 l57 7 -97 127 -97 127 -216 1 -216 0 -51 118 -51 117 75
3 74 3 0 224 c0 124 -4 225 -9 225 -4 0 -199 -20 -431 -45 -233 -24 -425 -43
-427 -41 -2 2 -22 72 -45 155 l-41 151 -122 0 -122 0 -39 -167 c-21 -91 -44
-172 -51 -178 -6 -7 -47 -15 -90 -19 -43 -3 -97 -9 -121 -12 l-43 -6 3 -56 c3
-57 3 -57 59 -94 l56 -37 -21 -100 c-11 -56 -24 -101 -27 -101 -10 0 -129 100
-129 108 0 4 -32 142 -71 307 -65 276 -70 304 -60 347 9 43 7 55 -29 156 l-39
110 25 23 c36 34 48 85 32 134 l-14 40 -57 -3 -57 -2 0 29 c0 28 3 30 54 41
39 8 53 15 50 25 -4 10 -13 11 -37 4 -62 -18 -77 -13 -77 25 0 19 -3 37 -7 39
-5 2 -29 -1 -55 -6z m-118 -467 c-5 -41 -10 -86 -10 -100 -2 -24 -2 -24 -16 7
-12 28 -11 39 8 102 12 39 22 70 24 69 1 -2 -2 -37 -6 -78z m309 -110 c0 -23
-1 -23 -9 -5 -5 11 -9 29 -9 40 -1 17 1 17 9 5 5 -8 9 -26 9 -40z m791 -140
l0 -30 -85 0 c-82 0 -85 1 -85 23 0 13 3 27 7 30 3 4 42 7 85 7 l78 0 0 -30z
m890 -290 l0 -70 -245 0 c-135 0 -245 4 -245 8 0 4 19 27 43 49 l42 42 190 19
c105 11 196 20 203 21 8 1 12 -19 12 -69z"/>
<path d="M4901 2584 l-31 -26 0 -110 0 -111 77 7 c42 3 89 6 105 6 28 0 28 1
28 59 l0 58 78 30 c67 25 77 32 77 53 0 34 -25 36 -90 10 l-54 -22 -34 36
c-30 31 -41 36 -80 36 -34 0 -53 -6 -76 -26z"/>
<path d="M4312 2583 c-51 -25 -62 -57 -62 -177 l0 -104 83 4 c45 3 101 7 124
10 l42 5 3 52 3 51 85 33 c101 40 117 52 101 82 -15 27 -33 26 -111 -4 -35
-14 -66 -25 -69 -25 -3 0 -14 14 -23 30 -31 55 -113 75 -176 43z"/>
<path d="M5195 2371 l-100 -49 -2185 -127 -2185 -127 -151 26 c-145 25 -344
36 -344 19 0 -5 85 -150 188 -323 l187 -315 2110 -2 2110 -2 602 442 c444 326
604 449 612 470 l10 27 -117 0 c-64 0 -234 2 -377 5 l-260 5 -100 -49z"/>
<path d="M905 2393 c-24 -6 -65 -42 -74 -65 -5 -15 -13 -14 -78 12 -58 22 -76
25 -89 16 -33 -25 -12 -49 74 -85 l82 -34 0 -70 0 -70 61 7 c34 3 88 6 120 6
l59 0 0 100 c0 118 -14 154 -65 176 -35 14 -54 16 -90 7z"/>
</g>
</svg>
