<?xml version="1.0" standalone="no"?>
<!DOCTYPE svg PUBLIC "-//W3C//DTD SVG 20010904//EN"
 "http://www.w3.org/TR/2001/REC-SVG-20010904/DTD/svg10.dtd">
<svg version="1.0" xmlns="http://www.w3.org/2000/svg"
 width="640.000000pt" height="640.000000pt" viewBox="0 0 640.000000 640.000000"
 preserveAspectRatio="xMidYMid meet">

<g transform="translate(0.000000,640.000000) scale(0.100000,-0.100000)"
fill="#808080" stroke="none">
<path d="M4156 4856 c-56 -21 -107 -66 -136 -122 -25 -48 -25 -51 -28 -341
l-3 -293 -45 0 -44 0 0 194 c0 193 0 195 -25 224 -14 17 -39 33 -55 37 -33 7
-84 -15 -100 -44 -6 -12 -10 -100 -10 -215 l0 -196 -60 0 c-69 0 -103 -13
-127 -49 -16 -23 -18 -62 -21 -387 l-3 -360 -237 -12 c-453 -23 -863 -78
-1449 -193 l-262 -52 -79 67 c-44 36 -86 66 -93 66 -8 0 -95 -24 -194 -54
l-180 -53 -3 -80 -3 -80 -74 -18 -75 -19 0 -37 c0 -36 -1 -38 -37 -41 l-38 -3
-3 -117 -3 -118 -74 0 -75 0 0 160 0 160 -35 0 -35 0 0 -160 0 -160 -95 0 -95
0 0 -70 0 -70 95 0 95 0 0 -150 0 -150 35 0 35 0 0 150 0 150 75 0 75 0 0
-108 c0 -111 7 -132 41 -132 13 0 19 -10 21 -37 l3 -36 170 -58 170 -57 -100
-2 c-119 -1 -132 10 155 -124 l215 -101 270 -5 270 -5 255 -67 c431 -112 839
-192 1195 -234 205 -25 594 -25 795 0 453 55 846 162 1204 330 363 170 631
410 707 634 32 92 32 215 1 292 -101 254 -539 433 -1274 521 l-187 22 -3 395
-3 394 -33 29 -32 29 -260 0 -260 0 0 283 c0 262 1 284 20 314 31 52 65 67
154 73 l81 5 0 45 0 45 -75 2 c-45 2 -91 -3 -114 -11z m214 -1015 c5 -11 10
-54 10 -95 0 -117 2 -116 -225 -116 -225 0 -225 0 -225 109 0 38 4 81 10 95
l10 26 204 0 c193 0 206 -1 216 -19z m-1524 -1117 c106 -50 110 -202 8 -262
-105 -62 -235 23 -221 144 11 104 118 163 213 118z m557 2 c52 -22 79 -59 85
-116 8 -85 -38 -152 -114 -166 -141 -26 -240 152 -137 248 55 51 104 61 166
34z m577 -4 c38 -20 80 -89 80 -131 0 -46 -38 -106 -81 -130 -105 -60 -230 25
-216 147 12 105 122 163 217 114z m560 0 c143 -72 80 -295 -79 -279 -79 8
-135 69 -135 147 0 111 115 182 214 132z m583 -8 c40 -29 71 -98 63 -142 -12
-75 -73 -127 -149 -127 -155 0 -205 206 -67 278 43 22 116 18 153 -9z"/>
</g>
</svg>
