<?xml version="1.0" standalone="no"?>
<!DOCTYPE svg PUBLIC "-//W3C//DTD SVG 20010904//EN"
 "http://www.w3.org/TR/2001/REC-SVG-20010904/DTD/svg10.dtd">
<svg version="1.0" xmlns="http://www.w3.org/2000/svg"
 width="320.000000pt" height="89.000000pt" viewBox="0 0 320.000000 89.000000"
 preserveAspectRatio="xMidYMid meet">

<g transform="translate(0.000000,89.000000) scale(0.100000,-0.100000)"
fill="#808080" stroke="none">
<path d="M1222 619 c-1 -63 -6 -90 -17 -99 -8 -7 -12 -16 -9 -21 3 -5 -9 -9
-25 -9 -17 0 -31 -4 -31 -10 0 -5 14 -10 30 -10 21 0 30 -5 30 -16 0 -13 -7
-15 -31 -10 -32 6 -69 -7 -69 -25 0 -6 11 -20 25 -31 31 -24 34 -68 5 -68 -11
0 -20 7 -20 15 0 9 -7 18 -15 21 -8 4 -15 14 -16 23 0 11 -3 9 -9 -6 -5 -13
-14 -23 -20 -23 -5 0 -10 -13 -10 -30 0 -19 -5 -30 -14 -30 -9 0 -12 8 -8 26
4 22 2 24 -20 19 -14 -4 -56 -10 -94 -14 -54 -7 -60 -9 -26 -10 47 -1 46 0 32
-35 -13 -36 -43 -35 -34 1 6 22 4 25 -10 20 -10 -4 -50 -8 -89 -9 -41 -1 -56
-3 -34 -5 24 -3 37 -9 37 -19 0 -11 -16 -14 -74 -14 -56 0 -75 -4 -80 -15 -5
-13 -43 -15 -261 -15 l-256 0 7 -38 c4 -20 12 -40 18 -44 6 -4 658 -8 1449 -8
1386 0 1437 1 1437 18 0 10 11 41 25 68 14 27 25 51 25 52 0 2 -17 1 -37 -2
-21 -3 -117 -8 -213 -11 -96 -3 -246 -9 -334 -15 -100 -6 -165 -6 -175 0 -11
7 5 10 54 11 l70 2 -65 8 c-36 4 -94 12 -130 18 -95 15 -121 14 -126 -7 -10
-36 -134 -62 -134 -27 0 9 -9 15 -24 15 -15 0 -26 7 -29 20 -5 18 0 20 59 20
92 0 79 16 -18 23 -46 4 -118 9 -160 13 l-78 7 0 -27 c0 -16 5 -26 15 -26 8 0
15 -7 15 -15 0 -10 -11 -15 -35 -15 -35 0 -35 0 -35 45 0 33 4 45 15 45 8 0
15 9 15 20 0 11 -7 20 -15 20 -8 0 -14 5 -13 11 4 18 -61 33 -78 18 -12 -9
-14 -6 -14 19 0 17 5 43 10 57 7 17 7 32 0 43 -5 10 -10 12 -10 5 0 -7 -9 -13
-20 -13 -14 0 -20 7 -21 23 -1 50 -10 91 -21 98 -19 12 -38 -2 -39 -27 -1 -13
-3 -28 -4 -34 -1 -5 -3 -19 -4 -30 0 -11 -8 -20 -16 -20 -8 0 -15 -7 -15 -15
0 -8 5 -15 10 -15 6 0 10 -18 10 -41 0 -32 -3 -40 -15 -35 -8 3 -15 1 -15 -4
0 -6 6 -10 13 -10 8 0 13 -21 14 -65 3 -64 2 -65 -23 -65 -14 0 -23 4 -20 9 4
5 -9 6 -29 1 -24 -5 -33 -5 -28 3 4 7 0 8 -13 3 -10 -4 -31 -10 -46 -13 -24
-5 -28 -2 -28 16 0 14 -6 21 -20 21 -16 0 -20 7 -20 34 0 28 4 35 23 39 21 4
21 5 2 11 -23 8 -31 46 -12 58 9 6 8 10 -3 18 -8 5 -10 10 -5 10 6 0 2 6 -7
14 -13 10 -18 32 -21 102 l-3 89 -2 -86z"/>
</g>
</svg>
